<?xml version="1.0" encoding="utf-8"?>
<svg xmlns="http://www.w3.org/2000/svg" xmlns:xlink="http://www.w3.org/1999/xlink" style="margin: auto; background: rgb(3, 78, 89); display: block; z-index: 1; position: relative; shape-rendering: auto;" width="431" height="666" preserveAspectRatio="xMidYMid" viewBox="0 0 431 666">
<g transform="translate(215.5,333) scale(1,1) translate(-215.5,-333)"><path d="M-100 463.11C-75.2 466.27 -74.08 456.56 -51.46 456.56S-26.46 459.53 -2.92 459.53S21.36 455.38 45.62 455.38S70.62 458.98 94.15 458.98S120.03 464 142.69 464S168.47 468.84 191.23 468.84S215.78 468.84 239.77 468.84S265.49 459.06 288.31 459.06S313.34 455.1 336.85 455.1S361.36 464.59 385.38 464.59S410.04 460.52 433.92 460.52S458.64 457.68 482.46 457.68S507.87 468.55 531 468.55S556.05 462.05 579.54 462.05L531 666 L-100 666 Z" fill="#1c838f" stroke-width="0">
  <animate attributeName="d" dur="25s" repeatCount="indefinite" values="M-100 463.11C-75.2 466.27 -74.08 456.56 -51.46 456.56S-26.46 459.53 -2.92 459.53S21.36 455.38 45.62 455.38S70.62 458.98 94.15 458.98S120.03 464 142.69 464S168.47 468.84 191.23 468.84S215.78 468.84 239.77 468.84S265.49 459.06 288.31 459.06S313.34 455.1 336.85 455.1S361.36 464.59 385.38 464.59S410.04 460.52 433.92 460.52S458.64 457.68 482.46 457.68S507.87 468.55 531 468.55S556.05 462.05 579.54 462.05L531 666 L-100 666 Z;M-100 468.6C-74.77 458.62 -75.35 465.09 -51.46 465.09S-27.11 467.87 -2.92 467.87S22.71 466.41 45.62 466.41S70.72 455.88 94.15 455.88S118.9 461.22 142.69 461.22S167.96 467.12 191.23 467.12S216.22 468.01 239.77 468.01S265.55 460.55 288.31 460.55S314.23 462.33 336.85 462.33S362.27 465.24 385.38 465.24S410.45 459.77 433.92 459.77S459.8 460.16 482.46 460.16S506.93 461.82 531 461.82S555.77 467.8 579.54 467.8L531 666 L-100 666 Z;M-100 463.11C-75.2 466.27 -74.08 456.56 -51.46 456.56S-26.46 459.53 -2.92 459.53S21.36 455.38 45.62 455.38S70.62 458.98 94.15 458.98S120.03 464 142.69 464S168.47 468.84 191.23 468.84S215.78 468.84 239.77 468.84S265.49 459.06 288.31 459.06S313.34 455.1 336.85 455.1S361.36 464.59 385.38 464.59S410.04 460.52 433.92 460.52S458.64 457.68 482.46 457.68S507.87 468.55 531 468.55S556.05 462.05 579.54 462.05L531 666 L-100 666 Z"></animate>
  <animateTransform attributeName="transform" type="translate" dur="25s" begin="0s" repeatCount="indefinite" values="0;10;0" calcMode="spline" keySplines="0.3 0 0.7 1;0.3 0 0.7 1"></animateTransform>
</path><path d="M-100 480.92C-74.19 477.66 -73.96 475.07 -50.12 475.07S-23.92 481.21 -0.24 481.21S25.64 489.14 49.64 489.14S75.72 484.06 99.53 484.06S125.97 484.77 149.41 484.77S175.22 475.15 199.29 475.15S224.44 482.41 249.17 482.41S275.21 472.97 299.05 472.97S325.44 482.15 348.93 482.15S374.35 472.16 398.81 472.16S424.77 486.59 448.7 486.59S474.67 471.68 498.58 471.68S523.78 475.53 548.46 475.53L531 666 L-100 666 Z" fill="#3d8f99" stroke-width="0">
  <animate attributeName="d" dur="22.5s" repeatCount="indefinite" values="M-100 480.92C-74.19 477.66 -73.96 475.07 -50.12 475.07S-23.92 481.21 -0.24 481.21S25.64 489.14 49.64 489.14S75.72 484.06 99.53 484.06S125.97 484.77 149.41 484.77S175.22 475.15 199.29 475.15S224.44 482.41 249.17 482.41S275.21 472.97 299.05 472.97S325.44 482.15 348.93 482.15S374.35 472.16 398.81 472.16S424.77 486.59 448.7 486.59S474.67 471.68 498.58 471.68S523.78 475.53 548.46 475.53L531 666 L-100 666 Z;M-100 470.92C-73.96 470.94 -74.19 476.46 -50.12 476.46S-24.34 483.85 -0.24 483.85S25.64 473.76 49.64 473.76S76.05 479.11 99.53 479.11S124.83 483.29 149.41 483.29S175.62 478.41 199.29 478.41S224.34 477.65 249.17 477.65S275.39 482.48 299.05 482.48S325.14 478.31 348.93 478.31S374.43 474.7 398.81 474.7S424.52 476.49 448.7 476.49S473.75 483.97 498.58 483.97S525.08 475.12 548.46 475.12L531 666 L-100 666 Z;M-100 480.92C-74.19 477.66 -73.96 475.07 -50.12 475.07S-23.92 481.21 -0.24 481.21S25.64 489.14 49.64 489.14S75.72 484.06 99.53 484.06S125.97 484.77 149.41 484.77S175.22 475.15 199.29 475.15S224.44 482.41 249.17 482.41S275.21 472.97 299.05 472.97S325.44 482.15 348.93 482.15S374.35 472.16 398.81 472.16S424.77 486.59 448.7 486.59S474.67 471.68 498.58 471.68S523.78 475.53 548.46 475.53L531 666 L-100 666 Z"></animate>
  <animateTransform attributeName="transform" type="translate" dur="22.5s" begin="-2.25s" repeatCount="indefinite" values="0;10;0" calcMode="spline" keySplines="0.3 0 0.7 1;0.3 0 0.7 1"></animateTransform>
</path><path d="M-100 499.04C-73.41 491.54 -73.3 498.66 -48.7 498.66S-21.52 490.15 2.6 490.15S29.44 496.23 53.9 496.23S80.5 489.01 105.2 489.01S131.53 498.85 156.5 498.85S182.88 489.8 207.8 489.8S233.71 508.11 259.11 508.11S284.83 498.48 310.41 498.48S336.14 502.63 361.71 502.63S388.82 486.82 413.01 486.82S439.01 498.02 464.31 498.02S491.49 492.77 515.61 492.77S541.73 503.94 566.91 503.94L531 666 L-100 666 Z" fill="#559ba3" stroke-width="0">
  <animate attributeName="d" dur="20s" repeatCount="indefinite" values="M-100 499.04C-73.41 491.54 -73.3 498.66 -48.7 498.66S-21.52 490.15 2.6 490.15S29.44 496.23 53.9 496.23S80.5 489.01 105.2 489.01S131.53 498.85 156.5 498.85S182.88 489.8 207.8 489.8S233.71 508.11 259.11 508.11S284.83 498.48 310.41 498.48S336.14 502.63 361.71 502.63S388.82 486.82 413.01 486.82S439.01 498.02 464.31 498.02S491.49 492.77 515.61 492.77S541.73 503.94 566.91 503.94L531 666 L-100 666 Z;M-100 486.24C-73.88 494.26 -73.6 501.72 -48.7 501.72S-22.23 490.05 2.6 490.05S29.81 504.35 53.9 504.35S80.44 499.15 105.2 499.15S131.4 503.1 156.5 503.1S182.97 490.31 207.8 490.31S233.56 507.64 259.11 507.64S285.14 498.64 310.41 498.64S337 494.12 361.71 494.12S387.98 500.87 413.01 500.87S439.4 503.09 464.31 503.09S491.49 501.38 515.61 501.38S542.03 508.54 566.91 508.54L531 666 L-100 666 Z;M-100 499.04C-73.41 491.54 -73.3 498.66 -48.7 498.66S-21.52 490.15 2.6 490.15S29.44 496.23 53.9 496.23S80.5 489.01 105.2 489.01S131.53 498.85 156.5 498.85S182.88 489.8 207.8 489.8S233.71 508.11 259.11 508.11S284.83 498.48 310.41 498.48S336.14 502.63 361.71 502.63S388.82 486.82 413.01 486.82S439.01 498.02 464.31 498.02S491.49 492.77 515.61 492.77S541.73 503.94 566.91 503.94L531 666 L-100 666 Z"></animate>
  <animateTransform attributeName="transform" type="translate" dur="20s" begin="-4s" repeatCount="indefinite" values="0;10;0" calcMode="spline" keySplines="0.3 0 0.7 1;0.3 0 0.7 1"></animateTransform>
</path><path d="M-100 517.96C-72.6 518.38 -72.34 529.04 -47.2 529.04S-19.69 512.95 5.61 512.95S33.57 513.32 58.41 513.32S85.23 504.43 111.21 504.43S138.7 526.89 164.02 526.89S191.27 507.5 216.82 507.5S243.92 515.72 269.62 515.72S296.97 512.9 322.43 512.9S349.57 528.43 375.23 528.43S403.02 507.43 428.03 507.43S454.52 522.17 480.84 522.17S507.91 511.19 533.64 511.19L531 666 L-100 666 Z" fill="#6ba7ae" stroke-width="0">
  <animate attributeName="d" dur="17.5s" repeatCount="indefinite" values="M-100 517.96C-72.6 518.38 -72.34 529.04 -47.2 529.04S-19.69 512.95 5.61 512.95S33.57 513.32 58.41 513.32S85.23 504.43 111.21 504.43S138.7 526.89 164.02 526.89S191.27 507.5 216.82 507.5S243.92 515.72 269.62 515.72S296.97 512.9 322.43 512.9S349.57 528.43 375.23 528.43S403.02 507.43 428.03 507.43S454.52 522.17 480.84 522.17S507.91 511.19 533.64 511.19L531 666 L-100 666 Z;M-100 509.83C-73.51 507.6 -73.39 528.81 -47.2 528.81S-19.25 506.33 5.61 506.33S33.53 521 58.41 521S84.81 506.82 111.21 506.82S138.57 522.7 164.02 522.7S191.4 511.59 216.82 511.59S244.14 516.09 269.62 516.09S296.13 516.97 322.43 516.97S348.84 520 375.23 520S401.74 509.64 428.03 509.64S454.51 524.82 480.84 524.82S508.06 511.72 533.64 511.72L531 666 L-100 666 Z;M-100 517.96C-72.6 518.38 -72.34 529.04 -47.2 529.04S-19.69 512.95 5.61 512.95S33.57 513.32 58.41 513.32S85.23 504.43 111.21 504.43S138.7 526.89 164.02 526.89S191.27 507.5 216.82 507.5S243.92 515.72 269.62 515.72S296.97 512.9 322.43 512.9S349.57 528.43 375.23 528.43S403.02 507.43 428.03 507.43S454.52 522.17 480.84 522.17S507.91 511.19 533.64 511.19L531 666 L-100 666 Z"></animate>
  <animateTransform attributeName="transform" type="translate" dur="17.5s" begin="-5.25s" repeatCount="indefinite" values="0;10;0" calcMode="spline" keySplines="0.3 0 0.7 1;0.3 0 0.7 1"></animateTransform>
</path><path d="M-100 524.89C-71.81 533 -72.7 547.76 -45.6 547.76S-17.19 530.11 8.79 530.11S36.66 545.52 63.19 545.52S90.48 534.99 117.59 534.99S145.83 534.28 171.98 534.28S200.41 546.4 226.38 546.4S254.34 533.11 280.78 533.11S308.21 524.94 335.17 524.94S363.42 546.83 389.57 546.83S418.11 523.33 443.97 523.33S471.43 540 498.36 540S526.29 536.68 552.76 536.68L531 666 L-100 666 Z" fill="#80b4b8" stroke-width="0">
  <animate attributeName="d" dur="15s" repeatCount="indefinite" values="M-100 524.89C-71.81 533 -72.7 547.76 -45.6 547.76S-17.19 530.11 8.79 530.11S36.66 545.52 63.19 545.52S90.48 534.99 117.59 534.99S145.83 534.28 171.98 534.28S200.41 546.4 226.38 546.4S254.34 533.11 280.78 533.11S308.21 524.94 335.17 524.94S363.42 546.83 389.57 546.83S418.11 523.33 443.97 523.33S471.43 540 498.36 540S526.29 536.68 552.76 536.68L531 666 L-100 666 Z;M-100 534.57C-72.6 535.33 -72.79 535.07 -45.6 535.07S-17.32 532.62 8.79 532.62S36.26 540.16 63.19 540.16S91.68 525.98 117.59 525.98S145.7 542.02 171.98 542.02S200.18 527.2 226.38 527.2S254.97 533.21 280.78 533.21S309.37 521.61 335.17 521.61S363.25 539.44 389.57 539.44S418 534.75 443.97 534.75S472.4 533.73 498.36 533.73S527.15 524.08 552.76 524.08L531 666 L-100 666 Z;M-100 524.89C-71.81 533 -72.7 547.76 -45.6 547.76S-17.19 530.11 8.79 530.11S36.66 545.52 63.19 545.52S90.48 534.99 117.59 534.99S145.83 534.28 171.98 534.28S200.41 546.4 226.38 546.4S254.34 533.11 280.78 533.11S308.21 524.94 335.17 524.94S363.42 546.83 389.57 546.83S418.11 523.33 443.97 523.33S471.43 540 498.36 540S526.29 536.68 552.76 536.68L531 666 L-100 666 Z"></animate>
  <animateTransform attributeName="transform" type="translate" dur="15s" begin="-6s" repeatCount="indefinite" values="0;10;0" calcMode="spline" keySplines="0.3 0 0.7 1;0.3 0 0.7 1"></animateTransform>
</path><path d="M-100 549.98C-70.33 544.61 -71.59 561.37 -43.91 561.37S-15.85 546.04 12.18 546.04S40.47 558.6 68.27 558.6S97.66 542.94 124.36 542.94S153.97 536.71 180.44 536.71S209.56 555.78 236.53 555.78S265.1 546.83 292.62 546.83S321.29 547.48 348.71 547.48S378.13 559.26 404.8 559.26S433.48 551.96 460.89 551.96S490.15 556.41 516.98 556.41S545.89 555.4 573.07 555.4L531 666 L-100 666 Z" fill="#94c0c3" stroke-width="0">
  <animate attributeName="d" dur="12.5s" repeatCount="indefinite" values="M-100 549.98C-70.33 544.61 -71.59 561.37 -43.91 561.37S-15.85 546.04 12.18 546.04S40.47 558.6 68.27 558.6S97.66 542.94 124.36 542.94S153.97 536.71 180.44 536.71S209.56 555.78 236.53 555.78S265.1 546.83 292.62 546.83S321.29 547.48 348.71 547.48S378.13 559.26 404.8 559.26S433.48 551.96 460.89 551.96S490.15 556.41 516.98 556.41S545.89 555.4 573.07 555.4L531 666 L-100 666 Z;M-100 548.78C-70.87 542.27 -71.03 547.26 -43.91 547.26S-14.28 543.4 12.18 543.4S40.42 555.25 68.27 555.25S97.92 549.71 124.36 549.71S153.58 563.19 180.44 563.19S209.93 548.15 236.53 548.15S265.55 553.81 292.62 553.81S321.68 546.94 348.71 546.94S378.02 564.91 404.8 564.91S433.34 538.9 460.89 538.9S489.39 557.61 516.98 557.61S546.4 559 573.07 559L531 666 L-100 666 Z;M-100 549.98C-70.33 544.61 -71.59 561.37 -43.91 561.37S-15.85 546.04 12.18 546.04S40.47 558.6 68.27 558.6S97.66 542.94 124.36 542.94S153.97 536.71 180.44 536.71S209.56 555.78 236.53 555.78S265.1 546.83 292.62 546.83S321.29 547.48 348.71 547.48S378.13 559.26 404.8 559.26S433.48 551.96 460.89 551.96S490.15 556.41 516.98 556.41S545.89 555.4 573.07 555.4L531 666 L-100 666 Z"></animate>
  <animateTransform attributeName="transform" type="translate" dur="12.5s" begin="-6.25s" repeatCount="indefinite" values="0;10;0" calcMode="spline" keySplines="0.3 0 0.7 1;0.3 0 0.7 1"></animateTransform>
</path><path d="M-100 569.39C-69.45 558.05 -69.82 586.01 -42.11 586.01S-12.33 564.78 15.78 564.78S45.79 584.77 73.67 584.77S103.51 555.65 131.56 555.65S160.56 569.13 189.45 569.13S219.5 553.79 247.34 553.79S277.08 589.31 305.23 589.31S334.93 564.06 363.12 564.06S392.53 579.37 421.01 579.37S450.38 573.98 478.9 573.98S507.86 554.37 536.79 554.37L531 666 L-100 666 Z" fill="#a8cccf" stroke-width="0">
  <animate attributeName="d" dur="10s" repeatCount="indefinite" values="M-100 569.39C-69.45 558.05 -69.82 586.01 -42.11 586.01S-12.33 564.78 15.78 564.78S45.79 584.77 73.67 584.77S103.51 555.65 131.56 555.65S160.56 569.13 189.45 569.13S219.5 553.79 247.34 553.79S277.08 589.31 305.23 589.31S334.93 564.06 363.12 564.06S392.53 579.37 421.01 579.37S450.38 573.98 478.9 573.98S507.86 554.37 536.79 554.37L531 666 L-100 666 Z;M-100 567.99C-70.03 568.59 -69.53 589.17 -42.11 589.17S-12.19 563.52 15.78 563.52S45.5 581.95 73.67 581.95S103.53 565.77 131.56 565.77S161.07 586.17 189.45 586.17S218.82 563.79 247.34 563.79S277.31 573 305.23 573S334.62 553.5 363.12 553.5S392.35 569.38 421.01 569.38S451.12 584.88 478.9 584.88S509.44 580.63 536.79 580.63L531 666 L-100 666 Z;M-100 569.39C-69.45 558.05 -69.82 586.01 -42.11 586.01S-12.33 564.78 15.78 564.78S45.79 584.77 73.67 584.77S103.51 555.65 131.56 555.65S160.56 569.13 189.45 569.13S219.5 553.79 247.34 553.79S277.08 589.31 305.23 589.31S334.93 564.06 363.12 564.06S392.53 579.37 421.01 579.37S450.38 573.98 478.9 573.98S507.86 554.37 536.79 554.37L531 666 L-100 666 Z"></animate>
  <animateTransform attributeName="transform" type="translate" dur="10s" begin="-6s" repeatCount="indefinite" values="0;10;0" calcMode="spline" keySplines="0.3 0 0.7 1;0.3 0 0.7 1"></animateTransform>
</path><path d="M-100 582.49C-69.65 579.86 -69.23 596.99 -40.19 596.99S-9.39 574.64 19.62 574.64S50.48 600.06 79.43 600.06S109.91 574.88 139.24 574.88S170.23 596.98 199.05 596.98S230.36 571.78 258.86 571.78S289.73 604.67 318.67 604.67S348.61 601.86 378.48 601.86S409.5 574.35 438.29 574.35S469.61 579.87 498.1 579.87S528.35 602.78 557.91 602.78L531 666 L-100 666 Z" fill="#bcd9da" stroke-width="0">
  <animate attributeName="d" dur="7.5s" repeatCount="indefinite" values="M-100 582.49C-69.65 579.86 -69.23 596.99 -40.19 596.99S-9.39 574.64 19.62 574.64S50.48 600.06 79.43 600.06S109.91 574.88 139.24 574.88S170.23 596.98 199.05 596.98S230.36 571.78 258.86 571.78S289.73 604.67 318.67 604.67S348.61 601.86 378.48 601.86S409.5 574.35 438.29 574.35S469.61 579.87 498.1 579.87S528.35 602.78 557.91 602.78L531 666 L-100 666 Z;M-100 574.11C-69.85 581.02 -69.88 606.37 -40.19 606.37S-8.94 585.76 19.62 585.76S49.69 584.05 79.43 584.05S110.08 581.92 139.24 581.92S170.08 597.61 199.05 597.61S230.45 575.76 258.86 575.76S290.39 605.91 318.67 605.91S349.73 597.25 378.48 597.25S409.12 576.03 438.29 576.03S468.45 575.93 498.1 575.93S529.06 602.71 557.91 602.71L531 666 L-100 666 Z;M-100 582.49C-69.65 579.86 -69.23 596.99 -40.19 596.99S-9.39 574.64 19.62 574.64S50.48 600.06 79.43 600.06S109.91 574.88 139.24 574.88S170.23 596.98 199.05 596.98S230.36 571.78 258.86 571.78S289.73 604.67 318.67 604.67S348.61 601.86 378.48 601.86S409.5 574.35 438.29 574.35S469.61 579.87 498.1 579.87S528.35 602.78 557.91 602.78L531 666 L-100 666 Z"></animate>
  <animateTransform attributeName="transform" type="translate" dur="7.5s" begin="-5.25s" repeatCount="indefinite" values="0;10;0" calcMode="spline" keySplines="0.3 0 0.7 1;0.3 0 0.7 1"></animateTransform>
</path><path d="M-100 598.04C-68.32 596.93 -68.73 629.13 -38.14 629.13S-5.62 594.58 23.73 594.58S55.1 625.26 85.59 625.26S117.05 589.84 147.45 589.84S179.18 619.55 209.31 619.55S241.6 598.14 271.18 598.14S303.69 612.99 333.04 612.99S365.01 626.77 394.9 626.77S426.25 621 456.76 621S488.32 601.58 518.63 601.58S550.54 616.82 580.49 616.82L531 666 L-100 666 Z" fill="#d0e6e6" stroke-width="0">
  <animate attributeName="d" dur="5s" repeatCount="indefinite" values="M-100 598.04C-68.32 596.93 -68.73 629.13 -38.14 629.13S-5.62 594.58 23.73 594.58S55.1 625.26 85.59 625.26S117.05 589.84 147.45 589.84S179.18 619.55 209.31 619.55S241.6 598.14 271.18 598.14S303.69 612.99 333.04 612.99S365.01 626.77 394.9 626.77S426.25 621 456.76 621S488.32 601.58 518.63 601.58S550.54 616.82 580.49 616.82L531 666 L-100 666 Z;M-100 587.76C-68.74 595.25 -67.93 627.85 -38.14 627.85S-6.99 599.89 23.73 599.89S54.97 628.5 85.59 628.5S116.95 601.46 147.45 601.46S179.7 619 209.31 619S241.85 589.59 271.18 589.59S303.49 629.06 333.04 629.06S364.53 598.67 394.9 598.67S426.06 616.7 456.76 616.7S488.51 600.94 518.63 600.94S551.06 615.3 580.49 615.3L531 666 L-100 666 Z;M-100 598.04C-68.32 596.93 -68.73 629.13 -38.14 629.13S-5.62 594.58 23.73 594.58S55.1 625.26 85.59 625.26S117.05 589.84 147.45 589.84S179.18 619.55 209.31 619.55S241.6 598.14 271.18 598.14S303.69 612.99 333.04 612.99S365.01 626.77 394.9 626.77S426.25 621 456.76 621S488.32 601.58 518.63 601.58S550.54 616.82 580.49 616.82L531 666 L-100 666 Z"></animate>
  <animateTransform attributeName="transform" type="translate" dur="5s" begin="-4s" repeatCount="indefinite" values="0;10;0" calcMode="spline" keySplines="0.3 0 0.7 1;0.3 0 0.7 1"></animateTransform>
</path><path d="M-100 612.58C-66.36 616.55 -67.04 635.04 -35.94 635.04S-2.33 608.57 28.12 608.57S61.12 633.21 92.18 633.21S124.67 618.67 156.24 618.67S189.54 645.04 220.3 645.04S252.6 610.9 284.37 610.9S316.98 647.81 348.43 647.81S381.71 603.57 412.49 603.57S446.12 646.68 476.55 646.68S509.88 637.13 540.61 637.13L531 666 L-100 666 Z" fill="#e5f2f2" stroke-width="0">
  <animate attributeName="d" dur="2.5s" repeatCount="indefinite" values="M-100 612.58C-66.36 616.55 -67.04 635.04 -35.94 635.04S-2.33 608.57 28.12 608.57S61.12 633.21 92.18 633.21S124.67 618.67 156.24 618.67S189.54 645.04 220.3 645.04S252.6 610.9 284.37 610.9S316.98 647.81 348.43 647.81S381.71 603.57 412.49 603.57S446.12 646.68 476.55 646.68S509.88 637.13 540.61 637.13L531 666 L-100 666 Z;M-100 604.68C-67.23 612.97 -67.11 636.51 -35.94 636.51S-2.48 637.16 28.12 637.16S60.71 639.32 92.18 639.32S124.24 603.11 156.24 603.11S189.41 637.28 220.3 637.28S253.73 606.84 284.37 606.84S317.8 648.48 348.43 648.48S380.8 615.23 412.49 615.23S444.53 647.71 476.55 647.71S508.91 615.06 540.61 615.06L531 666 L-100 666 Z;M-100 612.58C-66.36 616.55 -67.04 635.04 -35.94 635.04S-2.33 608.57 28.12 608.57S61.12 633.21 92.18 633.21S124.67 618.67 156.24 618.67S189.54 645.04 220.3 645.04S252.6 610.9 284.37 610.9S316.98 647.81 348.43 647.81S381.71 603.57 412.49 603.57S446.12 646.68 476.55 646.68S509.88 637.13 540.61 637.13L531 666 L-100 666 Z"></animate>
  <animateTransform attributeName="transform" type="translate" dur="2.5s" begin="-2.25s" repeatCount="indefinite" values="0;10;0" calcMode="spline" keySplines="0.3 0 0.7 1;0.3 0 0.7 1"></animateTransform>
</path></g>
</svg>